<svg xmlns="http://www.w3.org/2000/svg" xmlns:xlink="http://www.w3.org/1999/xlink" width="500" zoomAndPan="magnify" viewBox="0 0 375 374.999991" height="500" preserveAspectRatio="xMidYMid meet" version="1.0"><defs><g/><clipPath id="14b3c0b19e"><path d="M 3.726562 97.226562 L 371.878906 97.226562 L 371.878906 277.777344 L 3.726562 277.777344 Z M 3.726562 97.226562 " clip-rule="nonzero"/></clipPath><clipPath id="83fb834c96"><path d="M 371.273438 187.5 L 279.386719 277.777344 L 95.613281 277.777344 L 3.726562 187.5 L 95.613281 97.226562 L 279.386719 97.226562 Z M 371.273438 187.5 " clip-rule="nonzero"/></clipPath></defs><g clip-path="url(#14b3c0b19e)"><g clip-path="url(#83fb834c96)"><path fill="#737373" d="M 3.726562 97.226562 L 371.171875 97.226562 L 371.171875 277.777344 L 3.726562 277.777344 Z M 3.726562 97.226562 " fill-opacity="1" fill-rule="nonzero"/></g></g><g fill="#ffffff" fill-opacity="1"><g transform="translate(110.332112, 179.419723)"><g><path d="M 33.046875 -11.25 C 34.941406 -11.25 36.78125 -11.535156 38.5625 -12.109375 C 40.351562 -12.691406 41.671875 -13.25 42.515625 -13.78125 L 43.765625 -14.640625 L 49.0625 -4.046875 C 48.882812 -3.910156 48.640625 -3.726562 48.328125 -3.5 C 48.023438 -3.28125 47.3125 -2.875 46.1875 -2.28125 C 45.0625 -1.6875 43.859375 -1.164062 42.578125 -0.71875 C 41.296875 -0.28125 39.617188 0.113281 37.546875 0.46875 C 35.472656 0.820312 33.332031 1 31.125 1 C 26.039062 1 21.222656 -0.242188 16.671875 -2.734375 C 12.128906 -5.234375 8.46875 -8.664062 5.6875 -13.03125 C 2.90625 -17.40625 1.515625 -22.132812 1.515625 -27.21875 C 1.515625 -31.0625 2.332031 -34.75 3.96875 -38.28125 C 5.601562 -41.8125 7.773438 -44.832031 10.484375 -47.34375 C 13.203125 -49.863281 16.367188 -51.875 19.984375 -53.375 C 23.609375 -54.875 27.320312 -55.625 31.125 -55.625 C 34.65625 -55.625 37.910156 -55.203125 40.890625 -54.359375 C 43.867188 -53.523438 45.976562 -52.6875 47.21875 -51.84375 L 49.0625 -50.59375 L 43.765625 -40 C 43.460938 -40.257812 43 -40.578125 42.375 -40.953125 C 41.757812 -41.328125 40.523438 -41.820312 38.671875 -42.4375 C 36.816406 -43.0625 34.941406 -43.375 33.046875 -43.375 C 30.046875 -43.375 27.351562 -42.882812 24.96875 -41.90625 C 22.582031 -40.9375 20.691406 -39.65625 19.296875 -38.0625 C 17.910156 -36.476562 16.851562 -34.769531 16.125 -32.9375 C 15.394531 -31.113281 15.03125 -29.25 15.03125 -27.34375 C 15.03125 -23.195312 16.585938 -19.476562 19.703125 -16.1875 C 22.816406 -12.894531 27.265625 -11.25 33.046875 -11.25 Z M 33.046875 -11.25 "/></g></g></g><g fill="#ffffff" fill-opacity="1"><g transform="translate(156.207293, 179.419723)"><g><path d="M 31.71875 -54.625 L 53.765625 0 L 40.390625 0 L 36.359375 -10.921875 L 15.5625 -10.921875 L 11.515625 0 L -1.859375 0 L 20.203125 -54.625 Z M 32.109375 -21.859375 L 26.03125 -37.75 L 25.890625 -37.75 L 19.796875 -21.859375 Z M 32.109375 -21.859375 "/></g></g></g><g fill="#ffffff" fill-opacity="1"><g transform="translate(204.134677, 179.419723)"><g><path d="M 3.96875 -54.625 L 23.90625 -54.625 C 29.46875 -54.625 33.96875 -53.1875 37.40625 -50.3125 C 40.851562 -47.445312 42.578125 -43.273438 42.578125 -37.796875 C 42.578125 -32.328125 40.832031 -28.035156 37.34375 -24.921875 C 33.851562 -21.816406 29.375 -20.265625 23.90625 -20.265625 L 16.421875 -20.265625 L 16.421875 0 L 3.96875 0 Z M 16.421875 -30.203125 L 19.9375 -30.203125 C 22.71875 -30.203125 25 -30.765625 26.78125 -31.890625 C 28.570312 -33.015625 29.46875 -34.851562 29.46875 -37.40625 C 29.46875 -40.019531 28.570312 -41.890625 26.78125 -43.015625 C 25 -44.140625 22.71875 -44.703125 19.9375 -44.703125 L 16.421875 -44.703125 Z M 16.421875 -30.203125 "/></g></g></g><g fill="#ffffff" fill-opacity="1"><g transform="translate(244.250465, 179.419723)"><g><path d="M 16.421875 -54.625 L 16.421875 0 L 3.96875 0 L 3.96875 -54.625 Z M 16.421875 -54.625 "/></g></g></g><path stroke-linecap="butt" transform="matrix(0.762542, 0.762542, -0.762542, 0.762542, 35.157724, 180.869285)" fill="none" stroke-linejoin="miter" d="M 0.000219316 5.001876 L 84.434583 4.999315 " stroke="#ffffff" stroke-width="10" stroke-opacity="1" stroke-miterlimit="4"/><path stroke-linecap="butt" transform="matrix(-0.762542, 0.762542, -0.762542, -0.762542, 100.319338, 130.950695)" fill="none" stroke-linejoin="miter" d="M -0.00160676 5.000052 L 82.463091 5.000052 " stroke="#ffffff" stroke-width="10" stroke-opacity="1" stroke-miterlimit="4"/><path stroke-linecap="butt" transform="matrix(-0.762542, -0.762542, 0.762542, -0.762542, 340.877649, 195.051873)" fill="none" stroke-linejoin="miter" d="M -0.000108973 5.001264 L 84.815893 5.001264 " stroke="#ffffff" stroke-width="10" stroke-opacity="1" stroke-miterlimit="4"/><path stroke-linecap="butt" transform="matrix(0.762542, -0.762542, 0.762542, 0.762542, 275.415337, 245.227851)" fill="none" stroke-linejoin="miter" d="M 0.00000936493 4.998043 L 82.838662 4.998043 " stroke="#ffffff" stroke-width="10" stroke-opacity="1" stroke-miterlimit="4"/><g fill="#ffffff" fill-opacity="1"><g transform="translate(128.934451, 244.308252)"><g><path d="M 11.515625 -14.171875 C 13.640625 -14.171875 15.441406 -13.429688 16.921875 -11.953125 C 18.398438 -10.472656 19.140625 -8.675781 19.140625 -6.5625 C 19.140625 -4.476562 18.398438 -2.695312 16.921875 -1.21875 C 15.441406 0.257812 13.640625 1 11.515625 1 C 9.441406 1 7.664062 0.257812 6.1875 -1.21875 C 4.707031 -2.695312 3.96875 -4.476562 3.96875 -6.5625 C 3.96875 -8.675781 4.707031 -10.472656 6.1875 -11.953125 C 7.664062 -13.429688 9.441406 -14.171875 11.515625 -14.171875 Z M 11.515625 -14.171875 "/></g></g></g><g fill="#ffffff" fill-opacity="1"><g transform="translate(148.064886, 244.308252)"><g><path d="M 5.09375 -52.90625 C 6.46875 -54.28125 8.101562 -54.96875 10 -54.96875 C 11.894531 -54.96875 13.523438 -54.28125 14.890625 -52.90625 C 16.265625 -51.539062 16.953125 -49.90625 16.953125 -48 C 16.953125 -46.101562 16.265625 -44.472656 14.890625 -43.109375 C 13.523438 -41.742188 11.894531 -41.0625 10 -41.0625 C 8.101562 -41.0625 6.46875 -41.742188 5.09375 -43.109375 C 3.726562 -44.472656 3.046875 -46.101562 3.046875 -48 C 3.046875 -49.90625 3.726562 -51.539062 5.09375 -52.90625 Z M 3.96875 -33.96875 L 3.96875 0 L 15.6875 0 L 15.6875 -33.96875 Z M 3.96875 -33.96875 "/></g></g></g><g fill="#ffffff" fill-opacity="1"><g transform="translate(164.083934, 244.308252)"><g><path d="M 3.96875 0 L 3.96875 -33.96875 L 15.6875 -33.96875 L 15.6875 -30.390625 L 15.828125 -30.390625 C 18.867188 -33.441406 22.113281 -34.96875 25.5625 -34.96875 C 27.238281 -34.96875 28.90625 -34.742188 30.5625 -34.296875 C 32.21875 -33.859375 33.804688 -33.175781 35.328125 -32.25 C 36.847656 -31.320312 38.082031 -30.007812 39.03125 -28.3125 C 39.976562 -26.613281 40.453125 -24.632812 40.453125 -22.375 L 40.453125 0 L 28.734375 0 L 28.734375 -19.203125 C 28.734375 -20.972656 28.171875 -22.519531 27.046875 -23.84375 C 25.921875 -25.164062 24.453125 -25.828125 22.640625 -25.828125 C 20.878906 -25.828125 19.28125 -25.140625 17.84375 -23.765625 C 16.40625 -22.398438 15.6875 -20.878906 15.6875 -19.203125 L 15.6875 0 Z M 3.96875 0 "/></g></g></g><g fill="#ffffff" fill-opacity="1"><g transform="translate(203.868727, 244.308252)"><g><path d="M 5.09375 -52.90625 C 6.46875 -54.28125 8.101562 -54.96875 10 -54.96875 C 11.894531 -54.96875 13.523438 -54.28125 14.890625 -52.90625 C 16.265625 -51.539062 16.953125 -49.90625 16.953125 -48 C 16.953125 -46.101562 16.265625 -44.472656 14.890625 -43.109375 C 13.523438 -41.742188 11.894531 -41.0625 10 -41.0625 C 8.101562 -41.0625 6.46875 -41.742188 5.09375 -43.109375 C 3.726562 -44.472656 3.046875 -46.101562 3.046875 -48 C 3.046875 -49.90625 3.726562 -51.539062 5.09375 -52.90625 Z M 3.96875 -33.96875 L 3.96875 0 L 15.6875 0 L 15.6875 -33.96875 Z M 3.96875 -33.96875 "/></g></g></g><g fill="#ffffff" fill-opacity="1"><g transform="translate(219.887775, 244.308252)"><g><path d="M 5.953125 -33.96875 L 5.953125 -46.625 L 17.6875 -46.625 L 17.6875 -33.96875 L 24.828125 -33.96875 L 24.828125 -25.03125 L 17.6875 -25.03125 L 17.6875 -14.234375 C 17.6875 -11.097656 18.566406 -9.53125 20.328125 -9.53125 C 20.765625 -9.53125 21.226562 -9.617188 21.71875 -9.796875 C 22.207031 -9.972656 22.582031 -10.148438 22.84375 -10.328125 L 23.25 -10.59375 L 26.15625 -1.125 C 23.632812 0.289062 20.765625 1 17.546875 1 C 15.335938 1 13.4375 0.613281 11.84375 -0.15625 C 10.257812 -0.9375 9.054688 -1.976562 8.234375 -3.28125 C 7.421875 -4.582031 6.835938 -5.945312 6.484375 -7.375 C 6.128906 -8.8125 5.953125 -10.347656 5.953125 -11.984375 L 5.953125 -25.03125 L 1.0625 -25.03125 L 1.0625 -33.96875 Z M 5.953125 -33.96875 "/></g></g></g></svg>